<?xml version="1.0" encoding="UTF-8" standalone="no"?>
<!DOCTYPE svg PUBLIC "-//W3C//DTD SVG 1.1//EN" "http://www.w3.org/Graphics/SVG/1.1/DTD/svg11.dtd">
<svg width="100%" height="100%" viewBox="0 0 2000 2000" version="1.1" xmlns="http://www.w3.org/2000/svg" xmlns:xlink="http://www.w3.org/1999/xlink" xml:space="preserve" xmlns:serif="http://www.serif.com/" style="fill-rule:evenodd;clip-rule:evenodd;stroke-linejoin:round;stroke-miterlimit:2;">
    <g id="Layer-1" serif:id="Layer 1">
        <g transform="matrix(4.16937,0,0,3.86287,1733.01,594.126)">
            <path d="M0,98.123C-11.292,98.123 -20.438,88.977 -20.438,77.685C-20.438,66.393 -11.292,57.29 0,57.29C11.292,57.29 20.438,66.393 20.438,77.685C20.438,88.977 11.292,98.123 0,98.123M-80.223,159.614L-91.908,165.742L-91.908,100.793L-80.223,94.71L-80.223,159.614ZM-99.567,169.461L-111.253,175.589L-111.253,110.641L-99.567,104.558L-99.567,169.461ZM-120.006,178.434L-131.647,184.561L-131.647,119.656L-120.006,113.529L-120.006,178.434ZM-197.296,184.561L-351.965,96.679L-351.965,60.178L-197.296,143.858L-197.296,184.561ZM-320.833,-22.79L-253.967,42.219L-303.652,42.219L-335.692,26.431L-312.01,15.323L-347.301,-1.895L-320.833,-22.79ZM-182.011,-74.426L-108.124,2.972L-166.372,2.972L-156.119,-14.357L-185.782,-31.074L-171.759,-45.32L-182.011,-74.426ZM-49.189,-10.866L-30.615,-25.725L2.205,2.972L-23.799,-4.681L-43.004,9.714L-69.62,19.466L-49.189,-10.866ZM28.06,15.323L-31.005,-38.819L-70.623,1.802C-73.837,5.089 -78.703,4.996 -81.823,1.598L-188.977,-114.973L-278.057,-15.992C-280.731,-13.021 -284.818,-12.463 -288.031,-14.655L-322.226,-37.891L-379.233,15.56L-379.669,15.318L-379.669,15.968L-379.675,15.974L-379.669,15.982L-379.669,107.183L-209.114,201.63C-188.413,213.096 -163.247,213.096 -142.502,201.63L28.054,107.183L28.054,15.329L28.06,15.323Z" style="fill:white;fill-rule:nonzero;"/>
        </g>
        <g transform="matrix(4.16937,0,0,3.86287,1184.12,1458.03)">
            <path d="M0,10.9L11.642,4.772L11.642,69.676L0,75.804L0,10.9ZM20.395,1.883L32.08,-4.2L32.08,60.705L20.395,66.833L20.395,1.883ZM39.739,-7.964L51.425,-14.047L51.425,50.857L39.739,56.985L39.739,-7.964ZM131.647,-51.467C142.939,-51.467 152.086,-42.364 152.086,-31.073C152.086,-19.781 142.939,-10.633 131.647,-10.633C120.355,-10.633 111.209,-19.781 111.209,-31.073C111.209,-42.364 120.355,-51.467 131.647,-51.467M-65.649,75.804L-220.317,-12.078L-220.317,-48.579L-65.649,35.102L-65.649,75.804ZM-77.466,1.008L-248.021,-93.439L-248.021,-1.575L-77.466,92.873C-56.765,104.339 -31.6,104.339 -10.854,92.873L159.701,-1.575L159.701,-93.439L-10.854,1.008C-31.6,12.475 -56.765,12.475 -77.466,1.008" style="fill:white;fill-rule:nonzero;"/>
        </g>
    </g>
</svg>
